<?xml version="1.0" encoding="utf-8"?>
<svg viewBox="0 0 85.07 96" xmlns="http://www.w3.org/2000/svg">
  <defs>
    <style>.cls-1{fill:none;stroke:#000;stroke-linecap:round;stroke-linejoin:round;stroke-width:4px;}</style>
  </defs>
  <g data-name="Layer 2">
    <g>
      <path class="cls-1" d="M33.19,23.28,21.57,5.73a11.62,11.62,0,0,1,8-3.2c3.15,0,6.71,1.07,11.44,2.82a9,9,0,0,0,3.09.53c2.6,0,5.09-1,7.46-2S56,2,58.13,2a7.05,7.05,0,0,1,4.29,1.47L51.75,23.28" style="stroke: rgb(255, 110, 30);"/>
      <path class="cls-1" d="M67.77,93.39H17.35A15.37,15.37,0,0,1,2,78C2,63.8,7.22,50.3,17.48,37.9A81.5,81.5,0,0,1,32.56,23.78H52.51A80.08,80.08,0,0,1,67.59,37.9C77.87,50.3,83.07,63.78,83.07,78a15.3,15.3,0,0,1-15.3,15.35Z" style="stroke: rgb(255, 110, 30);"/>
    </g>
  </g>
  <path d="M 26.982 61.576 C 26.982 55.889 28.495 51.353 31.522 47.966 C 34.549 44.586 38.545 42.896 43.512 42.896 C 53.405 42.896 58.352 49.873 58.352 63.826 L 32.872 63.826 C 33.105 66.766 34.182 69.386 36.102 71.686 C 38.015 73.986 40.939 75.136 44.872 75.136 C 49.425 75.136 53.329 74.383 56.582 72.876 L 56.582 78.456 C 53.029 79.823 49.379 80.516 45.632 80.536 C 42.372 80.536 39.522 80.029 37.082 79.016 C 34.649 77.996 32.709 76.596 31.262 74.816 C 29.815 73.043 28.742 71.046 28.042 68.826 C 27.335 66.606 26.982 64.189 26.982 61.576 Z M 33.082 59.146 L 52.252 59.146 C 51.932 55.986 51.055 53.386 49.622 51.346 C 48.189 49.313 46.109 48.296 43.382 48.296 C 40.675 48.296 38.375 49.289 36.482 51.276 C 34.582 53.269 33.449 55.893 33.082 59.146 Z" transform="matrix(1, 0, 0, 1, 0, 0)" style="fill: rgb(255, 110, 30); stroke: rgb(255, 110, 30); white-space: pre;"/>
</svg>